<?xml version="1.0" standalone="no"?>
<!DOCTYPE svg PUBLIC "-//W3C//DTD SVG 1.1//EN" "http://www.w3.org/Graphics/SVG/1.1/DTD/svg11.dtd" >
<svg xmlns="http://www.w3.org/2000/svg">
<metadata></metadata>
<defs>
<font id="transport_new_mediumregular" horiz-adv-x="1454" >
<font-face units-per-em="2048" ascent="1597" descent="-451" />
<missing-glyph horiz-adv-x="716" />
<glyph horiz-adv-x="2048" />
<glyph horiz-adv-x="2048" />
<glyph unicode="&#xd;" horiz-adv-x="2048" />
<glyph unicode=" "  horiz-adv-x="716" />
<glyph unicode="&#x09;" horiz-adv-x="716" />
<glyph unicode="&#xa0;" horiz-adv-x="716" />
<glyph unicode="!" horiz-adv-x="671" d="M154 139q0 71 51 121.5t121 50.5t120 -50.5t50 -121.5q0 -72 -50 -123t-120 -51q-71 0 -121.5 51t-50.5 123zM154 1597h344l-82 -1179h-183z" />
<glyph unicode="&#x22;" horiz-adv-x="897" d="M154 971v626h206v-626h-206zM535 971v626h208v-626h-208z" />
<glyph unicode="#" horiz-adv-x="1302" d="M51 451l23 184h223l41 326h-221l22 184h223l58 450h207l-58 -450h258l58 450h205l-58 -450h219l-24 -184h-219l-41 -326h219l-25 -184h-219l-57 -451h-205l55 451h-258l-55 -451h-207l57 451h-221zM502 635h258l43 326h-258z" />
<glyph unicode="$" horiz-adv-x="1507" d="M82 283l215 190q36 -44 78 -84t99.5 -83.5t128 -69t140.5 -25.5q351 0 351 231q0 163 -351 236q-68 14 -118.5 25.5t-118.5 33t-116.5 45t-100 60t-83.5 79t-52.5 101t-20.5 127.5q1 102 37 185.5t101 141t152 94t193 50.5v162h273v-164q275 -42 438 -238l-209 -184 q-69 83 -176.5 133.5t-224.5 50.5q-71 0 -136 -20.5t-112 -69t-47 -116.5q0 -36 14.5 -66.5t43.5 -53.5t62.5 -40.5t82 -31.5t90.5 -23.5t100 -20.5q90 -16 167.5 -41t151 -66t125.5 -94t83.5 -128.5t31.5 -166.5q1 -114 -35.5 -201t-103 -142t-151.5 -86t-191 -42v-178 h-272v182q-322 48 -539 308z" />
<glyph unicode="%" horiz-adv-x="1906" d="M92 1126q0 84 16.5 163.5t51.5 152t84.5 126.5t121 86t156.5 32q92 0 167 -32.5t125 -86t83.5 -126t48.5 -150.5t15 -161q0 -82 -15 -161t-48 -154.5t-81 -132t-120.5 -91t-159.5 -34.5q-93 0 -169.5 33t-126.5 88t-84.5 129.5t-49.5 154t-15 164.5zM311 1126 q0 -65 10 -125t33 -118.5t68 -93.5t108 -35q48 0 85.5 24t60.5 61.5t38 88t21 98.5t6 98q0 67 -11 127.5t-34 116.5t-67.5 89.5t-104.5 33.5q-69 0 -118.5 -53t-72 -133.5t-22.5 -178.5zM946 479q0 84 16.5 163.5t51.5 151.5t84.5 126t121 86t156.5 32q114 0 201.5 -48.5 t137.5 -129.5t75 -176.5t25 -200.5q0 -82 -15 -161t-48 -154.5t-81 -132t-119.5 -91t-158.5 -34.5q-93 0 -169.5 33t-127 88t-85.5 129.5t-50 154t-15 164.5zM1165 479q0 -65 10 -125t33 -118.5t68 -94t108 -35.5q59 0 103 35.5t66.5 93.5t33 118.5t10.5 123.5q0 66 -11 127 t-34.5 117t-68 89.5t-103.5 33.5q-70 0 -120 -53t-72.5 -133.5t-22.5 -178.5z" />
<glyph unicode="&#x26;" horiz-adv-x="1443" d="M92 428q3 318 309 506q-106 173 -106 301q0 176 103 283.5t274 107.5q173 0 284 -90t111 -256q0 -61 -23.5 -117.5t-69 -106.5t-95 -90t-119.5 -87l276 -400q70 108 82 207h246q-7 -104 -54 -217t-120 -213q76 -63 176 -39l27 -219q-70 -33 -156 -33q-137 0 -244 113 q-188 -111 -381 -111q-104 0 -197.5 31t-166 87.5t-115 145.5t-41.5 197zM348 463q0 -112 83.5 -182t203.5 -72q88 -3 221 80l-328 459q-97 -69 -138.5 -134.5t-41.5 -150.5zM543 1241q1 -11 3 -22t4 -20t8 -21t8.5 -19t11 -20t11 -18t12.5 -19t12 -16.5t13.5 -18 t12.5 -16.5q87 52 136.5 106.5t49.5 128.5q0 60 -39.5 97.5t-103.5 37.5q-65 0 -103 -56t-36 -124z" />
<glyph unicode="'" horiz-adv-x="616" d="M205 975v622h207v-622h-207z" />
<glyph unicode="(" horiz-adv-x="778" d="M82 805q0 288 129 560.5t340 434.5l113 -131q-147 -151 -240.5 -385.5t-93.5 -478.5q0 -262 90 -484.5t246 -396.5l-111 -133q-227 192 -350 453.5t-123 560.5z" />
<glyph unicode=")" horiz-adv-x="778" d="M82 -76q156 174 246 396.5t90 484.5q0 244 -93.5 478.5t-240.5 385.5l113 131q211 -162 340 -434.5t129 -560.5q0 -299 -123 -560.5t-350 -453.5z" />
<glyph unicode="*" horiz-adv-x="751" d="M72 1171l51 162l186 -76v218h150v-215l188 73l53 -162l-190 -69l117 -182l-127 -101l-113 187l-113 -187l-131 101l119 182z" />
<glyph unicode="+" horiz-adv-x="1124" d="M92 408v229h354v407h234v-407h352v-229h-352v-408h-234v408h-354z" />
<glyph unicode="," horiz-adv-x="507" d="M92 154q0 64 46.5 110.5t111.5 46.5q70 0 118 -58t48 -138q0 -47 -6 -74q-17 -78 -68 -137q-28 -32 -79 -60t-109 -43l-31 74q83 26 127 68q8 6 13.5 16t4.5 16q0 19 -18 19q-64 0 -111 47t-47 113z" />
<glyph unicode="-" horiz-adv-x="679" d="M61 557v221h496v-221h-496z" />
<glyph unicode="." horiz-adv-x="497" d="M92 119q0 64 45.5 109.5t110.5 45.5t111.5 -45.5t46.5 -109.5t-46.5 -110t-111.5 -46q-64 0 -110 45.5t-46 110.5z" />
<glyph unicode="/" horiz-adv-x="827" d="M31 -362l557 1986l198 -57l-559 -1989z" />
<glyph unicode="0" horiz-adv-x="1466" d="M113 805q0 125 24 243.5t74.5 223.5t122 183.5t173 124.5t220.5 46q130 0 237 -46.5t178 -124.5t120 -183.5t70.5 -220.5t21.5 -240q0 -123 -22 -242t-70 -229t-117 -193t-171 -132.5t-224 -49.5q-111 0 -205 33t-162.5 92.5t-121 138.5t-84.5 174t-48 195.5t-16 206.5z M387 805q0 -62 6 -123.5t20 -131t41 -128t64 -106.5t94 -75.5t127 -27.5q79 0 141 40t98.5 101.5t60 142.5t32 154.5t8.5 147.5q0 80 -9.5 156t-34 155t-62.5 138t-100.5 96.5t-141.5 37.5q-89 0 -157 -50t-107.5 -134t-59.5 -183.5t-20 -209.5z" />
<glyph unicode="1" horiz-adv-x="929" d="M133 1141v211q153 4 225 59q72 54 82 186h234v-1597h-275v1141h-266z" />
<glyph unicode="2" horiz-adv-x="1284" d="M113 1067q-6 240 133 391.5t383 151.5q259 0 399.5 -141.5t140.5 -401.5q0 -78 -25.5 -158t-62 -145t-95.5 -135t-107 -117.5t-117.5 -104t-105.5 -83t-91 -65.5q-12 -9 -18 -13h624v-246h-1056v246q274 166 465 325q37 31 60 51.5t65 61.5t69.5 80.5t56.5 90t43.5 109 t14.5 119.5q0 127 -58.5 205t-187.5 78q-147 0 -215 -101t-47 -247h-266z" />
<glyph unicode="3" horiz-adv-x="1349" d="M123 434l262 60q28 -122 103 -198.5t192 -76.5q120 0 203.5 64.5t83.5 187.5q0 64 -22 110.5t-58 70t-82.5 38t-96.5 13t-100 -4.5v230h45q289 4 291 209q2 121 -61.5 180t-208.5 59q-219 0 -277 -231l-254 61q104 420 572 420q221 0 364.5 -128t143.5 -322 q0 -54 -9.5 -104.5t-29.5 -99t-56.5 -86t-85.5 -55.5q195 -120 195 -331q0 -237 -143.5 -384t-378.5 -147q-115 0 -210.5 25t-175.5 78t-133.5 145t-72.5 217z" />
<glyph unicode="4" horiz-adv-x="1402" d="M74 299v295l727 1003h336v-1052h184v-246h-184v-299h-279v299h-784zM350 545h512v729z" />
<glyph unicode="5" horiz-adv-x="1333" d="M113 324l258 100q34 -98 104 -153.5t176 -55.5q150 0 223.5 96.5t73.5 249.5q0 135 -83 224t-218 89q-87 0 -159.5 -39.5t-108.5 -113.5l-266 76l116 800h912v-245h-666l-43 -299q126 63 250 63q154 0 279 -83t192.5 -216t67.5 -285q0 -165 -73.5 -294.5t-204 -201 t-294.5 -71.5q-409 0 -536 359z" />
<glyph unicode="6" horiz-adv-x="1372" d="M113 782q0 125 20 242.5t66 228t114 192.5t171.5 131.5t230.5 49.5q97 0 174.5 -20t132.5 -57.5t92 -79t70 -97.5l-226 -115q-92 132 -243 132q-82 0 -147.5 -35t-104.5 -92.5t-58 -128.5t-14 -146l4 -67q160 157 350 157q161 0 279.5 -74t177 -198t58.5 -281 q0 -159 -62 -285t-183 -200t-282 -74q-137 0 -245 46.5t-177 123.5t-114.5 184.5t-64.5 221t-19 241.5zM403 526q0 -131 86 -222t209 -91t210 91.5t87 221.5q0 129 -87 220.5t-210 91.5t-209 -91.5t-86 -220.5z" />
<glyph unicode="7" horiz-adv-x="1179" d="M45 1352v245h1090v-254l-574 -1343h-299l569 1352h-786z" />
<glyph unicode="8" horiz-adv-x="1353" d="M113 420q0 127 56.5 231t164.5 166q-90 64 -142.5 154.5t-52.5 195.5q0 86 31 160.5t84 128t122.5 92t148 57.5t159.5 19q138 0 258.5 -55.5t197.5 -165t77 -250.5q0 -103 -53 -188.5t-144 -139.5q102 -67 161.5 -166t59.5 -215q0 -106 -48 -197.5t-125.5 -152.5 t-176.5 -96t-201 -35q-75 0 -155 19.5t-155.5 59.5t-135 93.5t-95.5 128t-36 156.5zM385 455q0 -104 86 -177t209 -73q122 0 208.5 73t86.5 177q0 103 -86.5 175t-208.5 72q-123 0 -209 -72t-86 -175zM410 1147q0 -97 78 -165.5t188 -68.5t189 68.5t79 165.5t-79 165 t-189 68t-188 -68t-78 -165z" />
<glyph unicode="9" horiz-adv-x="1372" d="M113 1069q0 158 62 283.5t182.5 199.5t281.5 74q137 0 245 -46.5t177.5 -123.5t115 -184.5t64.5 -221.5t19 -241q0 -103 -14.5 -202t-44 -195t-79 -176t-114 -141t-155 -95.5t-196.5 -34.5q-97 0 -174.5 20t-132.5 57.5t-92 79t-70 97.5l226 115q91 -131 245 -131 q108 0 185.5 60t111 150.5t27.5 192.5l-4 66q-165 -158 -352 -158q-161 0 -279 74t-176.5 198.5t-58.5 282.5zM373 1067q0 -130 87 -221.5t210 -91.5q122 0 208.5 91.5t86.5 221.5q0 129 -86.5 220t-208.5 91q-123 0 -210 -91t-87 -220z" />
<glyph unicode=":" horiz-adv-x="499" d="M92 739q0 65 46 110.5t110 45.5q65 0 111.5 -46t46.5 -110t-46.5 -110.5t-111.5 -46.5q-64 0 -110 46t-46 111zM96 119q0 64 45.5 109.5t110.5 45.5t110.5 -45.5t45.5 -109.5q0 -65 -46 -110.5t-110 -45.5t-110 45.5t-46 110.5z" />
<glyph unicode=";" horiz-adv-x="507" d="M92 154q0 64 46.5 110.5t111.5 46.5q70 0 118 -58t48 -138q0 -47 -6 -74q-17 -78 -68 -137q-28 -32 -79 -60t-109 -43l-31 74q83 26 127 68q8 6 13.5 16t4.5 16q0 19 -18 19q-64 0 -111 47t-47 113zM96 739q0 65 46 110.5t110 45.5q66 0 112 -45.5t46 -110.5t-46 -111 t-112 -46q-64 0 -110 46t-46 111z" />
<glyph unicode="&#x3c;" horiz-adv-x="1409" d="M92 479v170l1225 500v-234l-905 -350l905 -352v-233z" />
<glyph unicode="=" horiz-adv-x="1234" d="M102 205v213h1031v-213h-1031zM102 684v211h1031v-211h-1031z" />
<glyph unicode="&#x3e;" horiz-adv-x="1429" d="M102 -18v233l906 352l-906 351v235l1225 -502v-168z" />
<glyph unicode="?" horiz-adv-x="1261" d="M113 1110q0 152 69.5 270t190 182t270.5 64t270 -77.5t183 -201t63 -264.5q0 -88 -24.5 -164.5t-65 -130t-80 -89t-82.5 -60.5q-81 -47 -113 -100.5t-28 -141.5h-264q-4 147 56 255t165 159q184 90 184 274q0 116 -77 198.5t-197 82.5q-108 0 -190.5 -79.5t-82.5 -176.5 h-247zM467 139q0 71 50.5 121.5t121.5 50.5q70 0 120 -50.5t50 -121.5q0 -72 -50 -123t-120 -51q-71 0 -121.5 51t-50.5 123z" />
<glyph unicode="@" horiz-adv-x="1896" d="M164 799q0 171 65.5 325t176 263.5t262.5 174t319 64.5q203 0 372.5 -85t271.5 -242t102 -353q0 -124 -38.5 -233.5t-98.5 -182.5t-132 -126.5t-138.5 -78t-119.5 -24.5q-51 0 -88.5 29t-52.5 69h-10q-26 -30 -93 -64t-137 -34q-162 0 -250 104t-88 267q0 159 60 288.5 t177 208t271 78.5q79 0 149.5 -39t92.5 -92l27 101h172l-148 -574q-20 -82 -20 -100q0 -26 12 -43t37 -17q95 0 175 124t79 296q0 261 -162.5 410t-423.5 149q-137 1 -259 -51t-210 -141.5t-139 -214t-51 -262.5q0 -190 90.5 -343.5t243.5 -238t335 -84.5q127 0 237.5 46 t192.5 118l95 -111q-229 -215 -533 -215q-167 0 -318.5 63.5t-262.5 173t-176.5 265.5t-65.5 332zM713 793q-81 -310 139 -310q43 0 100 23t104 63t58 82l60 228q16 65 -25.5 125t-138.5 59q-116 0 -191 -73t-106 -197z" />
<glyph unicode="A" d="M41 0l514 1597h338l520 -1597h-274l-95 299h-632l-97 -299h-274zM485 532h482l-242 773z" />
<glyph unicode="B" horiz-adv-x="1466" d="M184 0v1597h654q83 0 161.5 -27t142.5 -76.5t103 -129t39 -176.5q0 -110 -55 -198.5t-129 -123.5q75 -21 129.5 -61t85.5 -95t45 -115.5t14 -131.5q0 -202 -138 -332.5t-341 -130.5h-711zM463 250h383q113 0 190.5 65t77.5 177q0 102 -69.5 176.5t-170.5 74.5h-411v-493z M463 958h375q93 0 144.5 60.5t51.5 146.5q0 75 -58.5 131t-141.5 56h-371v-394z" />
<glyph unicode="C" horiz-adv-x="1595" d="M102 788q0 138 29 262.5t88.5 231t144.5 184.5t204 122t259 44q243 0 417 -125t239 -342l-248 -88q-41 131 -141.5 221.5t-245.5 90.5q-101 -1 -181 -33t-132.5 -86.5t-87 -131t-49.5 -161.5t-15 -182q0 -90 14 -172t47 -159t83 -132.5t127.5 -89t174.5 -33.5 q146 0 250 77t148 216l252 -84q-167 -455 -654 -455q-171 0 -310 67.5t-228 182t-137 262.5t-48 313z" />
<glyph unicode="D" horiz-adv-x="1574" d="M184 0v1597h588q144 0 264 -46t201 -123t138 -179t82.5 -212t25.5 -224q0 -134 -28 -255t-86 -223t-141.5 -176.5t-200.5 -116.5t-257 -42h-586zM459 246h323q109 0 193.5 50.5t133.5 133.5t74 179.5t25 199.5q0 72 -16 147t-50 146t-81.5 126.5t-116 89.5t-147.5 34 h-338v-1106z" />
<glyph unicode="E" horiz-adv-x="1320" d="M184 0v1597h998v-249h-723v-418h661v-246h-661v-438h770v-246h-1045z" />
<glyph unicode="F" horiz-adv-x="1253" d="M184 0v1597h998v-245h-723v-420h661v-250h-661v-682h-275z" />
<glyph unicode="G" horiz-adv-x="1636" d="M92 825q0 165 47.5 310.5t136 257t227 176.5t308.5 65q216 0 381 -93t258 -281l-225 -115q-50 113 -161.5 178.5t-238.5 65.5q-97 0 -176.5 -35t-132 -93t-88 -136.5t-51 -162.5t-15.5 -174q0 -89 15 -170.5t49.5 -157t85.5 -130.5t129 -88t174 -33q92 1 169.5 30 t128 76.5t78.5 107.5t28 124v112h-418v240h651v-899h-231v160q-132 -195 -406 -195q-145 0 -265 46t-204 125.5t-142 189t-85 235t-27 264.5z" />
<glyph unicode="H" horiz-adv-x="1552" d="M184 0v1597h275v-620h706v620h275v-1597h-275v733h-706v-733h-275z" />
<glyph unicode="I" horiz-adv-x="645" d="M184 0v1597h277v-1597h-277z" />
<glyph unicode="J" horiz-adv-x="993" d="M41 16l70 252q114 -51 235 -51q68 0 126 37.5t58 112.5v1228h279v-1269q0 -88 -38 -159t-102 -114.5t-143.5 -66.5t-167.5 -23q-163 0 -317 53z" />
<glyph unicode="K" horiz-adv-x="1466" d="M184 0v1597h275v-710l600 710h340l-565 -655l591 -942h-305l-461 745l-200 -233v-512h-275z" />
<glyph unicode="L" horiz-adv-x="1130" d="M184 0v1597h275v-1351h620v-246h-895z" />
<glyph unicode="M" horiz-adv-x="1914" d="M184 0v1597h277l487 -708l508 708h275v-1597h-275v1153l-512 -711l-485 711v-1153h-275z" />
<glyph unicode="N" horiz-adv-x="1716" d="M184 0v1597h308l765 -1146v1146h275v-1597h-307l-766 1145v-1145h-275z" />
<glyph unicode="O" horiz-adv-x="1673" d="M102 788q0 187 45.5 340t134 266t228 175.5t319.5 62.5q186 0 329.5 -63t233 -177t134.5 -265.5t45 -335.5q0 -176 -47.5 -326t-138 -264t-233.5 -179t-323 -65q-171 0 -309 62t-229.5 172.5t-140 263t-48.5 333.5zM373 803q0 -100 15 -186t49.5 -162t86.5 -130 t130.5 -85t176.5 -31q106 0 188 33t133 88t83.5 133t45.5 160t13 178q0 98 -15 182.5t-49.5 160.5t-87 129.5t-132.5 84.5t-181 31q-97 0 -174.5 -32t-129.5 -86.5t-87 -130.5t-50 -159.5t-15 -177.5z" />
<glyph unicode="P" horiz-adv-x="1341" d="M184 0v1597h629q91 0 168.5 -30t131.5 -80.5t92.5 -116.5t56.5 -138t18 -145q0 -90 -35 -180t-94.5 -162.5t-148.5 -117.5t-189 -45h-350v-582h-279zM459 827h309q99 0 173.5 79.5t74.5 178.5q0 105 -72.5 184t-177.5 79h-307v-521z" />
<glyph unicode="Q" horiz-adv-x="1687" d="M102 788q0 186 46 339.5t135.5 266.5t230.5 175.5t322 62.5q188 0 333 -63t235 -177t135.5 -265.5t45.5 -335.5q0 -227 -80 -411.5t-231 -293.5l102 -182l-248 -131l-104 207q-91 -23 -186 -23q-173 0 -313 62t-232 172.5t-141.5 263t-49.5 333.5zM375 803 q0 -100 15 -186t50 -162t87.5 -130t132 -85t178.5 -31q37 0 67 6l-119 223l232 119l131 -242q158 150 158 486q0 98 -15 182.5t-50 160t-88.5 129.5t-134.5 85t-183 31q-97 0 -175.5 -32t-131 -86.5t-88 -130.5t-51 -159.5t-15.5 -177.5z" />
<glyph unicode="R" horiz-adv-x="1394" d="M184 0v1597h617q125 0 222.5 -42.5t155.5 -114t87.5 -158.5t29.5 -184q0 -160 -76 -281.5t-212 -161.5l325 -655h-299l-301 623h-274v-623h-275zM459 866h336q112 0 176.5 65.5t64.5 164.5q0 107 -66.5 179.5t-172.5 72.5h-338v-482z" />
<glyph unicode="S" horiz-adv-x="1544" d="M123 283l201 186q54 -87 202 -172.5t269 -85.5q79 0 138.5 9.5t109.5 33t76 67.5t26 109q0 160 -293 232l-217 55q-157 44 -245 96q-216 127 -216 354q0 113 49 202t135 145t198 85t243 29q373 0 577 -221l-200 -180q-141 153 -388 153q-139 0 -232 -52t-93 -154 q0 -35 19.5 -66t46.5 -51.5t70 -40t76.5 -30t80.5 -23.5q18 -4 99 -26t99 -26q68 -17 124 -37.5t123 -59t112.5 -86.5t76.5 -122t31 -164v-6q0 -102 -31 -182q-32 -82 -87.5 -135.5t-134 -89t-166.5 -50t-191 -14.5q-188 0 -371.5 80t-316.5 238z" />
<glyph unicode="T" horiz-adv-x="1230" d="M41 1348v249h1149v-249h-438v-1348h-275v1348h-436z" />
<glyph unicode="U" horiz-adv-x="1597" d="M174 549v1048h287v-1058q0 -128 106.5 -225t237.5 -97q77 0 155.5 43t131.5 119t53 160q-2 874 -2 1058h280v-1046q0 -130 -51.5 -241.5t-137 -186.5t-197 -117.5t-232.5 -42.5q-122 0 -236.5 43t-202 118.5t-140 186.5t-52.5 238z" />
<glyph unicode="V" horiz-adv-x="1392" d="M61 1597h277l360 -1228l357 1228h276l-467 -1597h-338z" />
<glyph unicode="W" horiz-adv-x="1998" d="M61 1597h287l250 -1079l250 1079h303l250 -1085l250 1085h286l-366 -1595h-307l-263 1145l-266 -1145h-305z" />
<glyph unicode="X" horiz-adv-x="1437" d="M51 0l514 842l-461 755h308l307 -501l305 501h309l-461 -755l514 -842h-307l-360 592l-361 -592h-307z" />
<glyph unicode="Y" horiz-adv-x="1400" d="M51 1597h291l358 -669l359 669h291l-512 -956v-641h-275v641z" />
<glyph unicode="Z" horiz-adv-x="1286" d="M102 2v250l746 1100h-725v245h1061v-249l-746 -1100h746v-246h-1082z" />
<glyph unicode="[" horiz-adv-x="770" d="M154 -250v1847h575v-165h-330v-1518h330v-164h-575z" />
<glyph unicode="\" horiz-adv-x="817" d="M31 1567l196 57l559 -1986l-196 -60z" />
<glyph unicode="]" horiz-adv-x="770" d="M41 -86h330v1518h-330v165h575v-1847h-575v164z" />
<glyph unicode="^" horiz-adv-x="1388" d="M41 383v664l651 653l656 -653v-662l-435 434v-1409h-436v1409z" />
<glyph unicode="_" horiz-adv-x="2856" d="M41 999l1059 -247v411h657v-411l1059 247l-1389 -981z" />
<glyph unicode="`" horiz-adv-x="1218" d="M336 1628h285l221 -323h-162z" />
<glyph unicode="a" horiz-adv-x="1198" d="M82 319q0 83 26.5 150.5t72.5 112.5t102 77.5t122.5 50t126 25.5t119.5 8q72 0 121 -8l4 41q1 12 1 24q0 67 -45 108q-53 48 -146 48q-84 0 -160.5 -25t-175.5 -75l-94 207q89 62 222 100.5t238 38.5q101 0 176 -22.5t121.5 -61t75 -96t39 -119.5t10.5 -141v-486 q0 -99 99 -122l-119 -195q-61 7 -112 40t-81 81q-131 -115 -327 -115q-114 0 -207 39t-151 121t-58 194zM348 338q0 -74 60.5 -116t138.5 -42q67 0 127 30t96 85v229q-47 8 -133 8q-48 0 -96 -10.5t-92.5 -32t-72.5 -60.5t-28 -91z" />
<glyph unicode="b" horiz-adv-x="1275" d="M133 0v1597h252v-518q139 113 299 113q144 0 262.5 -87t183 -229t64.5 -307q0 -115 -36 -223.5t-100.5 -194t-164.5 -137t-219 -51.5q-150 0 -289 119v-82h-252zM383 422q0 -64 44.5 -112t99 -68.5t104.5 -20.5q90 0 159.5 55t102.5 135.5t33 168.5q0 161 -79 261.5 t-222 100.5q-54 0 -108.5 -23.5t-94 -72.5t-39.5 -111v-313z" />
<glyph unicode="c" horiz-adv-x="1193" d="M82 580q0 95 21 183.5t65.5 167.5t108 137.5t154.5 93t200 34.5q164 0 286.5 -81t194.5 -230l-223 -109q-93 185 -268 185q-70 0 -124.5 -36t-85.5 -94.5t-46 -123.5t-15 -132q0 -66 17 -131t49.5 -121t87.5 -91t123 -35q87 0 159 52t107 132l217 -109 q-80 -142 -198.5 -225.5t-270.5 -83.5q-134 0 -241 47.5t-176 131.5t-105.5 195.5t-36.5 242.5z" />
<glyph unicode="d" horiz-adv-x="1286" d="M82 567q0 124 32.5 235t96 199.5t167 140.5t234.5 52q152 0 279 -100v503h262v-1599h-266l-2 76q-129 -109 -279 -109q-115 0 -215.5 53t-167 138.5t-104 193t-37.5 217.5zM350 580q0 -88 33 -168.5t102.5 -135.5t159.5 -55q50 0 105 20.5t100 68.5t45 112v313 q0 91 -78.5 149t-165.5 58q-143 0 -222 -100.5t-79 -261.5z" />
<glyph unicode="e" horiz-adv-x="1230" d="M82 586q0 174 60.5 309.5t187.5 217t305 81.5q132 0 234 -50.5t164.5 -140t92.5 -208.5q25 -99 24 -213q0 -23 -1 -47l-2 -48h-787q12 -131 87 -198.5t206 -67.5q80 0 139 21t123 80l160 -191q-83 -79 -191.5 -122.5t-228.5 -43.5q-179 0 -311 83.5t-197 222.5t-65 315z M356 688h527v17q-1 107 -69 179q-74 78 -193 77q-116 0 -190.5 -81.5t-74.5 -191.5z" />
<glyph unicode="f" horiz-adv-x="800" d="M33 946v217h186l-2 66v19q0 179 89 277q94 103 288 103q97 0 178 -20l-22 -232q-78 19 -103 19q-102 0 -139 -51q-34 -44 -34 -121q0 -10 1 -21l4 -39h211v-217h-211v-948h-260v948h-186z" />
<glyph unicode="g" horiz-adv-x="1220" d="M82 631q0 99 33 198t92 181t149.5 133t196.5 51q89 0 156 -24.5t125 -82.5v76h253v-1183q0 -392 -514 -392q-225 0 -419 111l94 217q161 -84 334 -84q45 0 84.5 7t79.5 24t64 52t24 85v156q-115 -103 -279 -103q-111 0 -202.5 48.5t-149.5 129.5t-89.5 184t-31.5 216z M344 629q0 -66 14.5 -123t43.5 -104.5t80 -75t118 -27.5q61 0 107.5 28.5t72.5 75t38.5 98t12.5 105.5q0 68 -14 127t-41.5 107.5t-75 77t-108.5 28.5q-78 0 -136 -49t-85 -119.5t-27 -148.5z" />
<glyph unicode="h" horiz-adv-x="1208" d="M133 0v1599h254v-530q136 127 295 127q187 0 290 -102t103 -279v-815h-256v748q0 200 -180 200q-103 0 -177.5 -60t-74.5 -159v-729h-254z" />
<glyph unicode="i" horiz-adv-x="579" d="M133 1470q0 65 46 110.5t112 45.5q64 0 109.5 -45.5t45.5 -110.5q0 -66 -45 -111.5t-110 -45.5q-66 0 -112 45.5t-46 111.5zM158 0v1163h262v-1163h-262z" />
<glyph unicode="j" horiz-adv-x="579" d="M-113 -346l70 235q52 -18 102 -18q68 0 68 88v1204h262v-1276q0 -130 -73.5 -201t-204.5 -71q-109 0 -224 39zM102 1470q0 65 46 110.5t112 45.5q64 0 110 -46t46 -110q0 -66 -45.5 -111.5t-110.5 -45.5q-66 0 -112 45.5t-46 111.5z" />
<glyph unicode="k" horiz-adv-x="1224" d="M133 0v1597h262v-880l436 446h345l-463 -465l471 -698h-285l-354 530l-150 -157v-373h-262z" />
<glyph unicode="l" horiz-adv-x="696" d="M133 274v1325h256v-1288q0 -48 30.5 -76t86.5 -28q47 0 119 16l30 -229q-127 -29 -204 -29q-167 0 -242.5 76t-75.5 233z" />
<glyph unicode="m" horiz-adv-x="1841" d="M133 0v1163h268v-76q41 45 116 78t134 33q216 0 326 -147q154 147 321 147q182 0 296 -111t114 -290v-797h-260v788q0 64 -56 116t-118 52q-78 0 -148.5 -58.5t-70.5 -135.5v-762h-264l-3 791q0 64 -48 115.5t-111 51.5q-88 0 -158 -59.5t-70 -132.5v-766h-268z" />
<glyph unicode="n" horiz-adv-x="1226" d="M133 0v1163h258v-94q127 127 301 127q192 0 297 -108.5t105 -282.5v-805h-265v727q0 106 -50.5 160.5t-145.5 54.5q-86 0 -164 -72.5t-78 -158.5v-711h-258z" />
<glyph unicode="o" horiz-adv-x="1273" d="M82 565q0 92 21.5 181.5t66.5 171.5t108.5 144t153.5 99t195 37q267 0 416 -165.5t149 -446.5q0 -133 -36 -245.5t-105 -196.5t-177 -131.5t-245 -47.5q-163 0 -289.5 84.5t-192 220t-65.5 295.5zM338 582q0 -155 88 -263t213 -108t213 108t88 263q0 154 -88 262 t-213 108t-213 -108t-88 -262z" />
<glyph unicode="p" horiz-adv-x="1302" d="M133 -383v1546h252v-82q46 50 127 82.5t162 32.5q160 0 286 -82.5t193.5 -219.5t67.5 -300q0 -145 -42 -265t-115 -199t-170.5 -122t-209.5 -43q-180 0 -299 119v-467h-252zM381 428q0 -62 40 -112t95 -74.5t109 -24.5q145 0 234 104.5t89 262.5q0 86 -38.5 166t-113 133 t-165.5 53q-48 0 -104.5 -27t-101 -81.5t-44.5 -118.5v-281z" />
<glyph unicode="q" horiz-adv-x="1304" d="M82 594q0 163 67.5 300t194 219.5t287.5 82.5q81 0 162 -32.5t127 -82.5v82h251v-1546h-251v467q-119 -119 -302 -119q-111 0 -208.5 43t-170.5 122t-115 199t-42 265zM354 584q0 -158 90.5 -262.5t235.5 -104.5q54 0 109 24.5t95 74.5t40 112v281q0 64 -44.5 118.5 t-101 81.5t-104.5 27q-91 0 -166 -53t-114.5 -133t-39.5 -166z" />
<glyph unicode="r" horiz-adv-x="800" d="M133 0v1163h264v-141q69 100 155 140q70 33 165 34q21 0 43 -2v-274l-37 2h-9q-122 0 -218 -76q-99 -80 -99 -209v-637h-264z" />
<glyph unicode="s" horiz-adv-x="1114" d="M72 135l164 187q69 -60 158 -90.5t167 -30.5q193 0 193 118q0 80 -160 123l-203 52q-124 30 -208.5 111.5t-84.5 213.5q0 91 39 164.5t104.5 119t146.5 69.5t169 24q261 0 453 -154l-158 -178q-143 97 -279 97q-89 0 -143.5 -34t-54.5 -93q0 -79 127 -111l213 -53 q68 -18 120 -42.5t99 -63.5t72.5 -99.5t25.5 -138.5q0 -90 -40 -161.5t-107.5 -114.5t-151.5 -65t-178 -22q-288 0 -483 172z" />
<glyph unicode="t" horiz-adv-x="864" d="M41 942v221h192v316l261 116v-432h301v-221h-301v-590q0 -84 28.5 -115.5t112.5 -31.5q71 0 135 24l43 -227q-149 -39 -258 -39q-47 0 -89 7t-86 26.5t-75.5 50.5t-51.5 83t-20 120v692h-192z" />
<glyph unicode="u" horiz-adv-x="1210" d="M123 350v813h260v-745q0 -104 49 -151.5t148 -47.5q86 0 162.5 72.5t76.5 159.5v712h258v-1163h-258v92q-56 -58 -139.5 -92.5t-159.5 -34.5q-185 0 -291 105t-106 280z" />
<glyph unicode="v" horiz-adv-x="1120" d="M35 1163h274l252 -821l248 821h276l-368 -1163h-316z" />
<glyph unicode="w" horiz-adv-x="1634" d="M35 1163h270l184 -780l183 780h291l182 -780l184 780h270l-321 -1163h-293l-170 764l-168 -764h-291z" />
<glyph unicode="x" horiz-adv-x="1155" d="M25 0l405 612l-364 553h299l215 -323l208 323h297l-362 -547l407 -618h-299l-253 391l-259 -391h-294z" />
<glyph unicode="y" horiz-adv-x="1112" d="M25 1163h274l258 -801l252 801h278l-430 -1310q-24 -73 -66.5 -132.5t-94.5 -89.5q-53 -32 -195 -32q-109 0 -199 34q13 78 43 213q79 -28 142 -28q61 0 101 25t40 75q0 24 -10 57z" />
<glyph unicode="z" horiz-adv-x="1079" d="M82 0v223l553 713h-502v227h844v-219l-557 -717h588v-227h-926z" />
<glyph unicode="{" horiz-adv-x="759" d="M82 700v191q51 3 86.5 19.5t55 38t31 59t15 70t4.5 83.5q2 37 2 79.5t-1 94.5t-1 80q0 220 92 327t312 107v-196q-55 -4 -93.5 -21.5t-60 -42.5t-33.5 -66t-15 -79t-3 -94q0 -37 2 -111t2 -111q0 -48 -1.5 -78.5t-8.5 -72t-20.5 -70t-39 -58.5t-61.5 -52q38 -24 64.5 -59 t40.5 -69t21.5 -81.5t9 -82t1.5 -85.5q0 -30 -1 -91t-1 -91q0 -58 2.5 -93t13.5 -74.5t31.5 -63t57.5 -42.5t92 -28v-197q-168 -2 -271 91.5t-118 262.5q-12 140 -15 287v53t-0.5 55t-4.5 54.5t-13 50.5q-22 56 -64 78.5t-110 27.5z" />
<glyph unicode="|" horiz-adv-x="509" d="M154 -55v1702h202v-1702h-202z" />
<glyph unicode="}" horiz-adv-x="759" d="M82 -63q55 9 92 28t57.5 42.5t31.5 63t13.5 74.5t2.5 93q0 30 -1.5 91t-1.5 91q0 51 1.5 85.5t9.5 82t22 81.5t40.5 69t64.5 59q-36 22 -61.5 52t-39 58.5t-20.5 70t-8.5 72t-1.5 78.5q0 37 2 111t2 111q0 56 -3 94t-15 79t-33.5 66t-60 42.5t-93.5 21.5v196 q219 0 311 -107t92 -327q0 -28 -1 -80t-1 -94.5t2 -79.5q1 -51 4.5 -83.5t15 -70t31.5 -59t55.5 -38t86.5 -19.5v-191q-67 -5 -109.5 -27.5t-64.5 -78.5q-8 -22 -12.5 -52t-5 -51t-1 -58.5t-0.5 -51.5q-3 -162 -14 -287q-13 -169 -116 -262.5t-273 -91.5v197z" />
<glyph unicode="~" horiz-adv-x="1456" d="M168 582q109 186 307 186q57 0 134.5 -25.5t141.5 -55.5t134 -55.5t114 -25.5q22 0 43 6t41.5 21t33.5 25.5t34 35.5t27.5 33.5t27.5 36.5l84 -154q-56 -93 -129.5 -139.5t-177.5 -46.5q-58 0 -136 25.5t-141.5 55.5t-133.5 55.5t-113 25.5q-33 0 -63.5 -13.5t-58.5 -42 t-43.5 -47.5t-41.5 -55z" />
<glyph unicode="&#xa1;" horiz-adv-x="651" d="M154 -35l79 1178h183l82 -1178h-344zM154 1423q0 72 50.5 123t121.5 51q70 0 120 -51t50 -123t-50 -123t-120 -51q-71 0 -121.5 51t-50.5 123z" />
<glyph unicode="&#xa2;" horiz-adv-x="1241" d="M102 582q0 235 127.5 406.5t305.5 195.5v166h233v-162q133 -31 223 -107t142 -204l-222 -99q-91 187 -254 187q-73 0 -131 -40.5t-91 -102t-50 -127t-16 -124.5q0 -84 32 -167.5t99.5 -144t154.5 -60.5q84 0 159.5 52t105.5 126l219 -111q-85 -127 -168 -196.5 t-203 -92.5v-161h-233v164q-186 24 -309.5 189t-123.5 413z" />
<glyph unicode="&#xa3;" horiz-adv-x="1337" d="M72 248q87 34 137.5 93t67.5 133t12 175h-193v172h160q-58 94 -81 167.5t-23 158.5q0 77 19.5 147t61.5 130.5t101.5 105.5t144.5 70.5t187 25.5q219 0 352.5 -101t169.5 -284l-250 -51q-30 115 -88.5 159t-169.5 44q-121 0 -201 -80.5t-78 -200.5q3 -83 37 -154 q6 -13 18 -36t23.5 -47.5t22.5 -53.5h397v-172h-358q6 -100 -14 -180t-70 -174q151 13 293 -35q16 -4 51 -16t55 -17q59 -16 123 -16q25 0 102 14q13 2 45 8.5t52 10.5l47 -244q-86 -22 -143.5 -29.5t-135.5 -7.5q-156 0 -287 43q-110 32 -122 35q-69 16 -152 16 q-81 0 -162 -18q-17 -4 -94 -29z" />
<glyph unicode="&#xa4;" horiz-adv-x="1742" d="M51 567l21 146h141q-2 25 -2 75v64h-121l21 145h118q24 136 81 250.5t144 201t211 135t271 48.5q243 0 416.5 -125t236.5 -342l-246 -88q-41 131 -142.5 221.5t-246.5 90.5q-190 0 -299 -106.5t-145 -285.5h451l-21 -145h-448v-57q0 -55 2 -82h428l-21 -146h-385 q20 -78 53.5 -140.5t84 -112.5t123 -77.5t161.5 -27.5q144 0 248.5 77.5t148.5 215.5l250 -84q-162 -455 -651 -455q-142 0 -263 46.5t-207.5 129t-145 191t-85.5 237.5h-182z" />
<glyph unicode="&#xa5;" horiz-adv-x="1482" d="M92 1597h291l356 -665h4l357 665h291l-357 -665h232v-193h-334l-53 -98v-63h387v-193h-387v-385h-275v385h-389v193h389v63l-53 98h-336v193h234z" />
<glyph unicode="&#xa6;" horiz-adv-x="444" d="M133 -41v655h178v-655h-178zM133 977v655h178v-655h-178z" />
<glyph unicode="&#xa7;" horiz-adv-x="1056" d="M82 616q0 83 49.5 147t155.5 128q-62 60 -93.5 118t-31.5 134q0 67 24 128.5t68.5 110.5t115 78t156.5 29q67 0 124.5 -15.5t109.5 -50t86 -99.5t43 -155h-184q-13 75 -59.5 118.5t-125.5 43.5q-76 0 -125 -45.5t-49 -105.5q0 -93 92 -144l320 -172q52 -28 87.5 -54.5 t67 -63.5t47 -86t15.5 -111q0 -20 -10 -51t-32 -71.5t-67 -83t-104 -71.5q72 -64 110.5 -128t38.5 -152q0 -117 -56.5 -203t-144 -126t-192.5 -40q-82 0 -148 24t-105.5 58.5t-67.5 82t-39.5 86.5t-16.5 79h197q13 -74 59.5 -123t141.5 -49q52 0 89.5 21.5t54.5 54t23.5 59 t6.5 49.5q0 64 -33.5 101t-99.5 73l-301 166q-70 39 -110.5 76t-63.5 95t-23 140zM248 670q0 -58 29 -95.5t79 -66.5l324 -186q60 35 88.5 77t28.5 101q0 40 -22.5 75t-47 53t-59.5 38l-299 163q-61 -23 -91 -72t-30 -87z" />
<glyph unicode="&#xa8;" horiz-adv-x="1261" d="M246 1450q0 56 39 94.5t94 38.5t94 -38.5t39 -94.5t-39 -94.5t-94 -38.5t-94 38.5t-39 94.5zM668 1450q0 56 39 94.5t94 38.5t94 -38.5t39 -94.5t-39 -94.5t-94 -38.5t-94 38.5t-39 94.5z" />
<glyph unicode="&#xa9;" horiz-adv-x="1906" d="M123 797q0 168 66 321.5t177 264.5t265 177t323 66q168 0 322 -66t265 -177t177 -264.5t66 -321.5q0 -169 -66 -323t-177 -265.5t-265 -177.5t-322 -66q-169 0 -323 66t-265 177.5t-177 265.5t-66 323zM180 795q0 -157 61 -300t164.5 -246.5t246.5 -164.5t300 -61 q158 0 301 61t247 164.5t165 246.5t61 300q0 158 -61 301t-165 247t-247 165t-301 61q-157 0 -300 -61t-246.5 -165t-164.5 -247t-61 -301zM369 799q0 159 78 294t212.5 213t292.5 78q163 0 303 -81t207 -209l-233 -136q-38 72 -112.5 114t-164.5 42q-131 0 -222 -91.5 t-91 -223.5q0 -131 91.5 -222.5t221.5 -91.5q86 0 159.5 43t111.5 109l231 -139q-74 -126 -208.5 -204.5t-293.5 -78.5q-158 0 -292.5 78.5t-212.5 213t-78 292.5z" />
<glyph unicode="&#xaa;" horiz-adv-x="987" d="M72 911q0 84 31 148t77.5 100.5t110.5 59.5t120.5 30.5t116.5 7.5q26 0 95 -6l4 33q7 67 -35.5 105t-116.5 38q-119 0 -270 -79l-74 165q70 50 177 80.5t192 30.5q99 0 167.5 -27t104 -77.5t50 -110t14.5 -137.5v-387q0 -40 21.5 -65.5t57.5 -33.5l-94 -155 q-108 13 -149 90h-10q-77 -86 -244 -86q-60 0 -119.5 17t-111 50t-83.5 87.5t-32 121.5zM285 932q0 -60 48 -92.5t111 -32.5q54 0 102 23.5t77 66.5l-2 184q-12 1 -33 2.5t-38.5 2.5t-33.5 1q-39 0 -77 -7.5t-74 -24t-58 -48.5t-22 -75z" />
<glyph unicode="&#xab;" horiz-adv-x="989" d="M102 481v254l322 291v-207l-227 -211l227 -211v-207zM565 481v254l322 291v-207l-228 -211l228 -211v-207z" />
<glyph unicode="&#xac;" horiz-adv-x="1175" d="M113 633v209h950v-621h-191v412h-759z" />
<glyph unicode="&#xad;" horiz-adv-x="679" d="M61 557v221h496v-221h-496z" />
<glyph unicode="&#xae;" horiz-adv-x="1882" d="M123 795q0 170 64.5 324t174 265t261 176.5t319.5 65.5q167 0 318.5 -65.5t260.5 -176.5t173.5 -265t64.5 -324q0 -135 -41 -262t-116.5 -229t-176 -178.5t-225 -118.5t-258.5 -42q-168 0 -319.5 65.5t-261 177t-174 265t-64.5 322.5zM279 795q0 -183 88 -337.5 t240.5 -244.5t332.5 -90q181 0 334 90t241.5 244.5t88.5 337.5q0 184 -88.5 338.5t-241.5 244.5t-334 90t-333 -90t-240 -244.5t-88 -338.5zM625 340v946h401q132 0 213.5 -83.5t81.5 -213.5q0 -169 -199 -264l219 -387h-186l-217 383h-152v-381h-161zM799 858h237 q54 0 87.5 40t33.5 91q-1 47 -39 85t-84 38h-235v-254z" />
<glyph unicode="&#xaf;" horiz-adv-x="722" d="M8 1313v139h709v-139h-709z" />
<glyph unicode="&#xb0;" horiz-adv-x="854" d="M102 1305q0 134 95.5 228.5t230.5 94.5q134 0 229 -95t95 -228q0 -135 -95 -230.5t-229 -95.5q-135 0 -230.5 95.5t-95.5 230.5zM252 1303q0 -72 51 -123.5t123 -51.5q73 0 124.5 51.5t51.5 123.5q0 73 -51 124.5t-125 51.5q-72 0 -123 -51.5t-51 -124.5z" />
<glyph unicode="&#xb1;" horiz-adv-x="1124" d="M92 53v211h940v-211h-940zM92 825v230h354v407h234v-407h352v-230h-352v-407h-234v407h-354z" />
<glyph unicode="&#xb2;" horiz-adv-x="1036" d="M72 1260q-3 202 103.5 312.5t303.5 110.5q181 0 282 -99.5t101 -278.5q0 -161 -109 -295t-294 -234h399l2 -190h-768v198q48 27 85 48t98 59.5t107 72t98 78.5t86 86.5t56.5 89t22.5 91.5q0 74 -45.5 126t-118.5 52q-93 0 -141 -67.5t-45 -159.5h-223z" />
<glyph unicode="&#xb3;" horiz-adv-x="1058" d="M72 897l209 39q21 -85 79.5 -132.5t149.5 -47.5q83 0 135.5 42.5t52.5 123.5q0 99 -114 125q-44 12 -162 12v174q69 -3 127 8q135 29 135 131q0 39 -18 66.5t-47.5 41t-58 19.5t-58.5 6q-177 0 -221 -155l-209 24q90 309 434 309q100 0 186.5 -35t143.5 -108.5t57 -171.5 q0 -165 -143 -217q155 -71 155 -229q0 -185 -98.5 -267t-302.5 -82q-355 0 -432 324z" />
<glyph unicode="&#xb4;" horiz-adv-x="1341" d="M512 1702l221 321h285l-346 -321h-160z" />
<glyph unicode="&#xb5;" horiz-adv-x="1282" d="M31 -422l313 1491h258l-149 -713l-7 -24q-13 -59 19 -95t84 -36q107 0 181.5 78.5t100.5 203.5l125 586h254l-225 -1075h-246l15 67q-65 -56 -115.5 -76t-106.5 -20q-73 0 -149 68l-96 -455h-256z" />
<glyph unicode="&#xb6;" horiz-adv-x="1107" d="M72 989q0 224 129 351.5t334 127.5h532v-133h-115v-1697h-147v1697h-197v-1697h-149v878q-182 13 -284.5 146t-102.5 327z" />
<glyph unicode="&#xb7;" horiz-adv-x="579" d="M102 801q0 64 45.5 109.5t110.5 45.5t111.5 -45.5t46.5 -109.5t-46.5 -110t-111.5 -46q-64 0 -110 45.5t-46 110.5z" />
<glyph unicode="&#xb8;" horiz-adv-x="1556" d="M559 -260q52 -19 98 -19q44 0 83.5 31.5t39.5 87.5q0 113 -86 166h56q82 0 155.5 -72t73.5 -174q0 -87 -58.5 -132.5t-152.5 -45.5q-99 0 -182 56z" />
<glyph unicode="&#xb9;" horiz-adv-x="595" d="M72 1378v144q71 6 114 41q49 40 58 123h198v-1082h-223v774h-147z" />
<glyph unicode="&#xba;" horiz-adv-x="1032" d="M72 1118q0 74 17 146t53 137.5t86.5 115.5t123 79.5t156.5 29.5q212 0 332.5 -133t120.5 -356q0 -144 -50 -255t-154 -177t-249 -66q-130 0 -231 67.5t-153 176t-52 235.5zM276 1133q0 -124 70 -210.5t170 -86.5t171 86.5t71 210.5q0 123 -71 210t-171 87t-170 -87 t-70 -210z" />
<glyph unicode="&#xbb;" horiz-adv-x="989" d="M102 190v207l228 211l-228 211v207l322 -291v-254zM565 190v207l228 211l-228 211v207l322 -291v-254z" />
<glyph unicode="&#xbc;" horiz-adv-x="1415" d="M72 1378v144q71 6 114 41q49 40 58 123h198v-1082h-223v774h-147zM356 113v219l533 665h295v-673h159v-211h-159v-183h-223v183h-605zM602 324h359v448z" />
<glyph unicode="&#xbd;" horiz-adv-x="1466" d="M72 1378v144q77 7 114 39q49 40 58 122h198v-1079h-223v774h-147zM563 604q-3 201 105 312.5t303 111.5q180 0 281.5 -99.5t101.5 -279.5q0 -160 -109 -294t-295 -234h402v-191h-768v199q50 27 85.5 47.5t98 59.5t107.5 72t98 78.5t86.5 86.5t56.5 88.5t23 91.5 q0 73 -46 125.5t-120 52.5q-93 0 -141.5 -67.5t-45.5 -159.5h-223z" />
<glyph unicode="&#xbe;" horiz-adv-x="1748" d="M72 897l209 39q21 -85 79.5 -132.5t149.5 -47.5q83 0 135.5 42.5t52.5 123.5q0 99 -114 125q-44 12 -162 12v174q69 -3 127 8q135 29 135 131q0 39 -18 66.5t-47.5 41t-58 19.5t-58.5 6q-177 0 -221 -155l-209 24q90 309 434 309q100 0 186.5 -35t143.5 -108.5t57 -171.5 q0 -165 -143 -217q155 -71 155 -229q0 -185 -98.5 -267t-302.5 -82q-355 0 -432 324zM690 113v219l533 665h295v-673h159v-211h-159v-183h-224v183h-604zM936 324h358v448z" />
<glyph unicode="&#xbf;" horiz-adv-x="1251" d="M92 514q0 87 24 165t64 133t81 93.5t85 63.5q78 44 108.5 88.5t32.5 113.5h299q6 -128 -69 -250.5t-170 -162.5q-82 -35 -124 -98.5t-42 -147.5q0 -99 72 -177.5t184 -78.5q107 0 179 73.5t77 178.5h276q-3 -243 -155.5 -393t-386.5 -150q-117 0 -219 46.5t-170 123.5 t-107 175.5t-39 203.5zM465 1452q0 72 50 123t120 51q71 0 121.5 -51t50.5 -123t-50.5 -123t-121.5 -51q-70 0 -120 51t-50 123z" />
<glyph unicode="&#xc0;" d="M41 0l514 1597h338l520 -1597h-274l-95 299h-632l-97 -299h-274zM369 2023h284l221 -321h-159zM485 532h482l-242 773z" />
<glyph unicode="&#xc1;" d="M41 0l514 1597h338l520 -1597h-274l-95 299h-632l-97 -299h-274zM485 532h482l-242 773zM502 1700l221 321h285l-346 -321h-160z" />
<glyph unicode="&#xc2;" d="M41 0l514 1597h338l520 -1597h-274l-95 299h-632l-97 -299h-274zM352 1702l260 321h230l260 -321h-203l-172 213l-172 -213h-203zM485 532h482l-242 773z" />
<glyph unicode="&#xc3;" d="M41 0l514 1597h338l520 -1597h-274l-95 299h-632l-97 -299h-274zM373 1700q11 103 66.5 169t144.5 66q59 0 143 -43q4 -2 21 -10t23.5 -11t21 -9t24 -8.5t22.5 -4.5t25 -2q40 0 67 22t38 62h104q-8 -110 -62 -170.5t-147 -60.5q-49 0 -137 43q-96 47 -147 47 q-39 0 -66.5 -24.5t-38.5 -65.5h-102zM485 532h482l-242 773z" />
<glyph unicode="&#xc4;" d="M41 0l514 1597h338l520 -1597h-274l-95 299h-632l-97 -299h-274zM389 1835q0 55 38.5 94t94.5 39t94.5 -39t38.5 -94t-38.5 -94t-94.5 -39t-94.5 39t-38.5 94zM485 532h482l-242 773zM811 1835q0 55 38.5 94t94.5 39t94.5 -39t38.5 -94t-38.5 -94t-94.5 -39t-94.5 39 t-38.5 94z" />
<glyph unicode="&#xc5;" d="M41 0l514 1597h338l520 -1597h-274l-95 299h-632l-97 -299h-274zM485 532h482l-242 773zM489 1937q0 97 68.5 165.5t165.5 68.5t166 -68.5t69 -165.5q0 -98 -69 -166.5t-166 -68.5t-165.5 68.5t-68.5 166.5zM610 1935q0 -46 33 -79t80 -33t80 33t33 79q0 47 -33 81 t-80 34t-80 -34t-33 -81z" />
<glyph unicode="&#xc6;" horiz-adv-x="2267" d="M41 0l999 1597h1082v-247h-721v-424h653v-240h-653v-440l774 2v-248h-1042l2 295h-637l-179 -295h-278zM633 522h502v832z" />
<glyph unicode="&#xc7;" horiz-adv-x="1595" d="M102 788q0 138 29 262.5t88.5 231t144.5 184.5t204 122t259 44q243 0 417 -125t239 -342l-248 -88q-41 131 -141.5 221.5t-245.5 90.5q-101 -1 -181 -33t-132.5 -86.5t-87 -131t-49.5 -161.5t-15 -182q0 -90 14 -172t47 -159t83 -132.5t127.5 -89t174.5 -33.5 q146 0 250 77t148 216l252 -84q-147 -398 -537 -449q51 -33 84 -88t33 -121q0 -87 -58.5 -132.5t-152.5 -45.5q-99 0 -182 56l-27 102q52 -19 98 -19q44 0 83.5 31.5t39.5 87.5q0 70 -39 123q-137 1 -254 45t-201.5 121.5t-144.5 181.5t-89.5 225t-29.5 252z" />
<glyph unicode="&#xc8;" horiz-adv-x="1320" d="M184 0v1597h998v-249h-723v-418h661v-246h-661v-438q114 -4 242.5 -4t285.5 2t242 2v-246h-1045zM354 2023h285l221 -321h-160z" />
<glyph unicode="&#xc9;" horiz-adv-x="1320" d="M184 0v1597h998v-249h-723v-418h661v-246h-661v-438q114 -4 242.5 -4t285.5 2t242 2v-246h-1045zM502 1702l221 321h285l-346 -321h-160z" />
<glyph unicode="&#xca;" horiz-adv-x="1320" d="M184 0v1597h998v-249h-723v-418h661v-246h-661v-438q114 -4 242.5 -4t285.5 2t242 2v-246h-1045zM328 1702l260 321h229l260 -321h-203l-172 213l-172 -213h-202z" />
<glyph unicode="&#xcb;" horiz-adv-x="1320" d="M184 0v1597h998v-249h-723v-418h661v-246h-661v-438q114 -4 242.5 -4t285.5 2t242 2v-246h-1045zM365 1835q0 55 38.5 94t94.5 39t94.5 -39t38.5 -94t-38.5 -94t-94.5 -39t-94.5 39t-38.5 94zM786 1835q0 55 39 94t95 39t94.5 -39t38.5 -94t-38.5 -94t-94.5 -39t-95 39 t-39 94z" />
<glyph unicode="&#xcc;" horiz-adv-x="665" d="M4 2025h285l219 -321h-160zM195 0v1599h276v-1599h-276z" />
<glyph unicode="&#xcd;" horiz-adv-x="665" d="M158 1702l221 321h285l-347 -321h-159zM195 0v1597h276v-1597h-276z" />
<glyph unicode="&#xce;" horiz-adv-x="665" d="M-43 1702l258 321h231l261 -321h-203l-172 213l-172 -213h-203zM195 0v1597h276v-1597h-276z" />
<glyph unicode="&#xcf;" horiz-adv-x="665" d="M-10 1835q0 55 39 94t94 39t94 -39t39 -94t-39 -94t-94 -39t-94 39t-39 94zM195 0v1597h276v-1597h-276zM412 1835q0 55 39 94t94 39t94 -39t39 -94t-39 -94t-94 -39t-94 39t-39 94z" />
<glyph unicode="&#xd0;" horiz-adv-x="1574" d="M92 696v211h86v690h594q144 0 264 -46t201 -123t138 -179t82.5 -212t25.5 -224q0 -134 -28 -255t-86 -223t-141.5 -176.5t-200.5 -116.5t-257 -42h-586l-6 696h-86zM453 246h329q109 0 193.5 50.5t133.5 133.5t74 179.5t25 199.5q0 72 -16 147t-50 146t-81.5 126.5 t-116 89.5t-147.5 34h-338l-6 -445h278v-211h-278v-450z" />
<glyph unicode="&#xd1;" horiz-adv-x="1716" d="M184 0v1597h308l765 -1146v1146h275v-1597h-307l-766 1145v-1145h-275zM483 1702q11 103 66.5 169t144.5 66q60 0 144 -43q4 -2 21 -10t23.5 -11t21 -9t24 -8.5t22.5 -4.5t25 -2q39 0 66 22t38 62h105q-8 -110 -62 -170.5t-147 -60.5q-49 0 -137 43q-96 47 -148 47 q-39 0 -66 -24.5t-38 -65.5h-103z" />
<glyph unicode="&#xd2;" horiz-adv-x="1673" d="M102 788q0 187 45.5 340t134 266t228 175.5t319.5 62.5q186 0 329.5 -63t233 -177t134.5 -265.5t45 -335.5q0 -176 -47.5 -326t-138 -264t-233.5 -179t-323 -65q-171 0 -309 62t-229.5 172.5t-140 263t-48.5 333.5zM373 803q0 -100 15 -186t49.5 -162t86.5 -130 t130.5 -85t176.5 -31q106 0 188 33t133 88t83.5 133t45.5 160t13 178q0 98 -15 182.5t-49.5 160.5t-87 129.5t-132.5 84.5t-181 31q-97 0 -174.5 -32t-129.5 -86.5t-87 -130.5t-50 -159.5t-15 -177.5zM457 2023h284l222 -321h-160z" />
<glyph unicode="&#xd3;" horiz-adv-x="1673" d="M102 788q0 187 45.5 340t134 266t228 175.5t319.5 62.5q186 0 329.5 -63t233 -177t134.5 -265.5t45 -335.5q0 -176 -47.5 -326t-138 -264t-233.5 -179t-323 -65q-171 0 -309 62t-229.5 172.5t-140 263t-48.5 333.5zM373 803q0 -100 15 -186t49.5 -162t86.5 -130 t130.5 -85t176.5 -31q106 0 188 33t133 88t83.5 133t45.5 160t13 178q0 98 -15 182.5t-49.5 160.5t-87 129.5t-132.5 84.5t-181 31q-97 0 -174.5 -32t-129.5 -86.5t-87 -130.5t-50 -159.5t-15 -177.5zM645 1702l221 321h285l-346 -321h-160z" />
<glyph unicode="&#xd4;" horiz-adv-x="1673" d="M102 788q0 187 45.5 340t134 266t228 175.5t319.5 62.5q186 0 329.5 -63t233 -177t134.5 -265.5t45 -335.5q0 -176 -47.5 -326t-138 -264t-233.5 -179t-323 -65q-171 0 -309 62t-229.5 172.5t-140 263t-48.5 333.5zM373 803q0 -100 15 -186t49.5 -162t86.5 -130 t130.5 -85t176.5 -31q106 0 188 33t133 88t83.5 133t45.5 160t13 178q0 98 -15 182.5t-49.5 160.5t-87 129.5t-132.5 84.5t-181 31q-97 0 -174.5 -32t-129.5 -86.5t-87 -130.5t-50 -159.5t-15 -177.5zM451 1702l260 321h229l260 -321h-203l-172 213l-172 -213h-202z" />
<glyph unicode="&#xd5;" horiz-adv-x="1673" d="M102 788q0 187 45.5 340t134 266t228 175.5t319.5 62.5q186 0 329.5 -63t233 -177t134.5 -265.5t45 -335.5q0 -176 -47.5 -326t-138 -264t-233.5 -179t-323 -65q-171 0 -309 62t-229.5 172.5t-140 263t-48.5 333.5zM373 803q0 -100 15 -186t49.5 -162t86.5 -130 t130.5 -85t176.5 -31q106 0 188 33t133 88t83.5 133t45.5 160t13 178q0 98 -15 182.5t-49.5 160.5t-87 129.5t-132.5 84.5t-181 31q-97 0 -174.5 -32t-129.5 -86.5t-87 -130.5t-50 -159.5t-15 -177.5zM483 1702q11 103 66.5 169t144.5 66q60 0 144 -43q4 -2 21 -10t23.5 -11 t21 -9t24 -8.5t22.5 -4.5t25 -2q39 0 66 22t38 62h105q-8 -110 -62 -170.5t-147 -60.5q-49 0 -137 43q-96 47 -148 47q-39 0 -66 -24.5t-38 -65.5h-103z" />
<glyph unicode="&#xd6;" horiz-adv-x="1673" d="M102 788q0 187 45.5 340t134 266t228 175.5t319.5 62.5q186 0 329.5 -63t233 -177t134.5 -265.5t45 -335.5q0 -176 -47.5 -326t-138 -264t-233.5 -179t-323 -65q-171 0 -309 62t-229.5 172.5t-140 263t-48.5 333.5zM373 803q0 -100 15 -186t49.5 -162t86.5 -130 t130.5 -85t176.5 -31q106 0 188 33t133 88t83.5 133t45.5 160t13 178q0 98 -15 182.5t-49.5 160.5t-87 129.5t-132.5 84.5t-181 31q-97 0 -174.5 -32t-129.5 -86.5t-87 -130.5t-50 -159.5t-15 -177.5zM483 1835q0 55 38.5 94t94.5 39t95 -39t39 -94t-39 -94t-95 -39 t-94.5 39t-38.5 94zM905 1835q0 55 38.5 94t94.5 39t94.5 -39t38.5 -94t-38.5 -94t-94.5 -39t-94.5 39t-38.5 94z" />
<glyph unicode="&#xd7;" horiz-adv-x="1116" d="M82 174l311 348l-311 350l162 164l313 -350l311 350l166 -164l-311 -350l311 -348l-164 -166l-313 348l-313 -348z" />
<glyph unicode="&#xd8;" horiz-adv-x="1662" d="M102 797q0 191 57.5 349.5t156.5 263.5t231.5 162.5t283.5 57.5q66 0 162 -16l45 158l131 -48l-45 -155q204 -103 320 -300t117 -474q1 -184 -57 -341.5t-157.5 -264.5t-233 -167.5t-282.5 -60.5q-60 0 -153 16l-47 -167l-129 47l47 163q-208 105 -327.5 307.5 t-119.5 469.5zM377 795q0 -331 244 -516l301 1077q-73 8 -88 8q-94 0 -176 -38t-144 -108.5t-99 -179.5t-38 -243zM750 229q53 -6 84 -6q191 0 311.5 156.5t120.5 413.5q0 166 -52 291t-163 221z" />
<glyph unicode="&#xd9;" horiz-adv-x="1597" d="M174 549v1048h287v-1058q0 -128 106.5 -225t237.5 -97q77 0 155.5 43t131.5 119t53 160q-2 874 -2 1058h280v-1046q0 -130 -51.5 -241.5t-137 -186.5t-197 -117.5t-232.5 -42.5q-122 0 -236.5 43t-202 118.5t-140 186.5t-52.5 238zM457 2023h284l222 -321h-160z" />
<glyph unicode="&#xda;" horiz-adv-x="1597" d="M174 549v1048h287v-1058q0 -128 106.5 -225t237.5 -97q77 0 155.5 43t131.5 119t53 160q-2 874 -2 1058h280v-1046q0 -130 -51.5 -241.5t-137 -186.5t-197 -117.5t-232.5 -42.5q-122 0 -236.5 43t-202 118.5t-140 186.5t-52.5 238zM584 1702l221 321h285l-347 -321h-159z " />
<glyph unicode="&#xdb;" horiz-adv-x="1597" d="M174 549v1048h287v-1058q0 -128 106.5 -225t237.5 -97q77 0 155.5 43t131.5 119t53 160q-2 874 -2 1058h280v-1046q0 -130 -51.5 -241.5t-137 -186.5t-197 -117.5t-232.5 -42.5q-122 0 -236.5 43t-202 118.5t-140 186.5t-52.5 238zM426 1702l260 321h229l261 -321h-203 l-172 213l-172 -213h-203z" />
<glyph unicode="&#xdc;" horiz-adv-x="1597" d="M174 549v1048h287v-1058q0 -128 106.5 -225t237.5 -97q77 0 155.5 43t131.5 119t53 160q-2 874 -2 1058h280v-1046q0 -130 -51.5 -241.5t-137 -186.5t-197 -117.5t-232.5 -42.5q-122 0 -236.5 43t-202 118.5t-140 186.5t-52.5 238zM451 1835q0 55 38.5 94t94.5 39 t94.5 -39t38.5 -94t-38.5 -94t-94.5 -39t-94.5 39t-38.5 94zM872 1835q0 55 39 94t95 39t94.5 -39t38.5 -94t-38.5 -94t-94.5 -39t-95 39t-39 94z" />
<glyph unicode="&#xdd;" horiz-adv-x="1400" d="M51 1597h291l358 -669l359 669h291l-512 -956v-641h-275v641zM502 1704l221 321h285l-346 -321h-160z" />
<glyph unicode="&#xde;" horiz-adv-x="1310" d="M143 0v1597h273v-258h356q91 0 168.5 -30t131.5 -80.5t92.5 -116.5t56.5 -138t18 -145q0 -90 -35 -180t-94.5 -162.5t-148.5 -117.5t-189 -45h-354v-324h-275zM418 569h309q100 0 175 79.5t75 178.5q0 105 -73 184t-177 79h-309v-521z" />
<glyph unicode="&#xdf;" horiz-adv-x="1265" d="M123 0v1100q0 246 128.5 386t371.5 140q129 0 238.5 -57.5t176 -162.5t66.5 -235q0 -94 -52 -178.5t-132 -126.5q109 -35 186.5 -138.5t77.5 -231.5q0 -222 -134 -359t-356 -137h-129v250q326 -11 326 252q0 69 -28 118.5t-76 74.5t-103 35t-119 7v189q266 -7 266 221 q0 93 -61 155t-154 62q-96 0 -156.5 -68t-60.5 -166l-4 -1130h-272z" />
<glyph unicode="&#xe0;" horiz-adv-x="1198" d="M82 319q0 83 26.5 150.5t72.5 112.5t102 77.5t122.5 50t126 25.5t119.5 8q72 0 121 -8l4 41q9 84 -44 132t-146 48q-84 0 -160.5 -25t-175.5 -75l-94 207q89 62 222 100.5t238 38.5q101 0 176 -22.5t121.5 -61t75 -96t39 -119.5t10.5 -141v-486q0 -99 99 -122l-119 -195 q-61 7 -112 40t-81 81q-131 -115 -327 -115q-114 0 -207 39t-151 121t-58 194zM264 1628h285l221 -323h-162zM348 338q0 -74 60.5 -116t138.5 -42q67 0 127 30t96 85v229q-47 8 -133 8q-49 0 -96 -9.5t-92.5 -30.5t-73 -61t-27.5 -93z" />
<glyph unicode="&#xe1;" horiz-adv-x="1198" d="M82 319q0 83 26.5 150.5t72.5 112.5t102 77.5t122.5 50t126 25.5t119.5 8q72 0 121 -8l4 41q9 84 -44 132t-146 48q-84 0 -160.5 -25t-175.5 -75l-94 207q89 62 222 100.5t238 38.5q101 0 176 -22.5t121.5 -61t75 -96t39 -119.5t10.5 -141v-486q0 -99 99 -122l-119 -195 q-61 7 -112 40t-81 81q-131 -115 -327 -115q-114 0 -207 39t-151 121t-58 194zM348 338q0 -74 60.5 -116t138.5 -42q67 0 127 30t96 85v229q-47 8 -133 8q-48 0 -96 -10.5t-92.5 -32t-72.5 -60.5t-28 -91zM416 1305l219 321h285l-345 -321h-159z" />
<glyph unicode="&#xe2;" horiz-adv-x="1198" d="M82 319q0 83 26.5 150.5t72.5 112.5t102 77.5t122.5 50t126 25.5t119.5 8q72 0 121 -8l4 41q9 84 -44 132t-146 48q-84 0 -160.5 -25t-175.5 -75l-94 207q89 62 222 100.5t238 38.5q101 0 176 -22.5t121.5 -61t75 -96t39 -119.5t10.5 -141v-486q0 -99 99 -122l-119 -195 q-61 7 -112 40t-81 81q-131 -115 -327 -115q-114 0 -207 39t-151 121t-58 194zM227 1305l260 321h232l260 -321h-203l-172 213l-172 -213h-205zM348 338q0 -74 60.5 -116t138.5 -42q67 0 127 30t96 85v229q-47 8 -133 8q-48 0 -96 -10t-92.5 -31.5t-72.5 -61t-28 -91.5z" />
<glyph unicode="&#xe3;" horiz-adv-x="1198" d="M82 319q0 83 26.5 150.5t72.5 112.5t102 77.5t122.5 50t126 25.5t119.5 8q72 0 121 -8l4 41q9 84 -44 132t-146 48q-84 0 -160.5 -25t-175.5 -75l-94 207q89 62 222 100.5t238 38.5q101 0 176 -22.5t121.5 -61t75 -96t39 -119.5t10.5 -141v-486q0 -99 99 -122l-119 -195 q-61 7 -112 40t-81 81q-131 -115 -327 -115q-114 0 -207 39t-151 121t-58 194zM236 1305q11 103 66 169t144 66q60 0 144 -43q4 -2 21 -10t23.5 -11t21 -9t24 -8.5t22.5 -4.5t25 -2q39 0 66 22t38 62h105q-8 -110 -62 -170.5t-147 -60.5q-49 0 -137 43q-96 47 -148 47 q-39 0 -66 -24.5t-38 -65.5h-102zM348 338q0 -74 60.5 -116t138.5 -42q67 0 127 30t96 85v229q-47 8 -133 8q-66 0 -128.5 -17.5t-111.5 -63.5t-49 -113z" />
<glyph unicode="&#xe4;" horiz-adv-x="1198" d="M82 319q0 83 26.5 150.5t72.5 112.5t102 77.5t122.5 50t126 25.5t119.5 8q72 0 121 -8l4 41q9 84 -44 132t-146 48q-84 0 -160.5 -25t-175.5 -75l-94 207q89 62 222 100.5t238 38.5q101 0 176 -22.5t121.5 -61t75 -96t39 -119.5t10.5 -141v-486q0 -99 99 -122l-119 -195 q-61 7 -112 40t-81 81q-131 -115 -327 -115q-114 0 -207 39t-151 121t-58 194zM260 1436q0 56 39 94.5t94 38.5t94 -38.5t39 -94.5t-39 -94.5t-94 -38.5t-94 38.5t-39 94.5zM348 338q0 -74 60.5 -116t138.5 -42q67 0 127 30t96 85v229q-47 8 -133 8q-49 0 -96 -9.5 t-92.5 -30.5t-73 -61t-27.5 -93zM682 1436q0 56 39 94.5t94 38.5t94 -38.5t39 -94.5t-39 -94.5t-94 -38.5t-94 38.5t-39 94.5z" />
<glyph unicode="&#xe5;" horiz-adv-x="1198" d="M82 319q0 83 26.5 150.5t72.5 112.5t102 77.5t122.5 50t126 25.5t119.5 8q72 0 121 -8l4 41q9 84 -44 132t-146 48q-84 0 -160.5 -25t-175.5 -75l-94 207q89 62 222 100.5t238 38.5q101 0 176 -22.5t121.5 -61t75 -96t39 -119.5t10.5 -141v-486q0 -99 99 -122l-119 -195 q-61 7 -112 40t-81 81q-131 -115 -327 -115q-114 0 -207 39t-151 121t-58 194zM348 338q0 -74 60.5 -116t138.5 -42q67 0 127 30t96 85v229q-47 8 -133 8q-48 0 -96 -10.5t-92.5 -32t-72.5 -60.5t-28 -91zM365 1530q0 97 68.5 166t166.5 69q97 0 165.5 -69t68.5 -166 t-68.5 -165.5t-165.5 -68.5q-98 0 -166.5 68.5t-68.5 165.5zM485 1530q0 -47 33.5 -80t79.5 -33q47 0 81 33t34 80t-33.5 79.5t-81.5 32.5q-46 0 -79.5 -32.5t-33.5 -79.5z" />
<glyph unicode="&#xe6;" horiz-adv-x="1839" d="M61 324q0 82 28.5 149t78 111t116.5 76.5t143.5 45.5t159 17.5t163.5 -6.5l8 84q0 57 -30.5 93.5t-70.5 49t-88 12.5q-168 0 -344 -106l-94 213q211 133 424 133q119 0 212 -22t169 -91q131 113 309 113q128 0 229 -50.5t162.5 -138t92 -200.5t26.5 -242l-2 -59h-770 q14 -148 100 -222.5t209 -74.5q60 0 123 24.5t115 69.5l170 -160q-161 -178 -410 -178q-129 0 -233 42t-193 151q-61 -109 -152.5 -151t-207.5 -42q-83 0 -160 22t-141.5 64t-103 113t-38.5 160zM354 332q0 -44 17.5 -75.5t47 -46.5t59.5 -21.5t65 -6.5q84 0 130 20.5 t66 67.5q13 32 17 101q0 12 -1 60t-1 91q-74 10 -136 10q-36 0 -69.5 -5t-70 -18.5t-63 -35t-44 -58t-17.5 -83.5zM987 707h514q-20 122 -92 194t-168 72q-93 0 -166 -73.5t-88 -192.5z" />
<glyph unicode="&#xe7;" horiz-adv-x="1193" d="M82 580q0 95 21 183.5t65.5 167.5t108 137.5t154.5 93t200 34.5q164 0 286.5 -81t194.5 -230l-223 -109q-93 185 -268 185q-70 0 -124.5 -36t-85.5 -94.5t-46 -123.5t-15 -132q0 -66 17 -131t49.5 -121t87.5 -91t123 -35q87 0 159 52t107 132l217 -109 q-70 -125 -169.5 -205t-225.5 -98q50 -34 82 -89.5t32 -119.5q0 -87 -58.5 -132.5t-152.5 -45.5q-99 0 -182 56l-26 102q52 -19 98 -19q44 0 83.5 31.5t39.5 87.5q0 72 -39 125q-163 12 -279.5 97t-173.5 218t-57 300z" />
<glyph unicode="&#xe8;" horiz-adv-x="1230" d="M82 586q0 174 60.5 309.5t187.5 217t305 81.5q132 0 234 -50.5t164.5 -140t92 -208.5t23.5 -260l-2 -48h-787q12 -131 88 -198.5t207 -67.5q146 0 254 94l178 -176q-214 -174 -432 -174q-179 0 -311 83.5t-197 222.5t-65 315zM291 1628h284l222 -323h-162zM356 688h527 q6 118 -68.5 195.5t-193.5 77.5q-116 0 -190.5 -81.5t-74.5 -191.5z" />
<glyph unicode="&#xe9;" horiz-adv-x="1230" d="M82 586q0 174 60.5 309.5t187.5 217t305 81.5q132 0 234 -50.5t164.5 -140t92 -208.5t23.5 -260l-2 -48h-787q12 -131 88 -198.5t207 -67.5q146 0 254 94l178 -176q-214 -174 -432 -174q-179 0 -311 83.5t-197 222.5t-65 315zM356 688h527q6 118 -68.5 195.5t-193.5 77.5 q-116 0 -190.5 -81.5t-74.5 -191.5zM457 1305l219 321h285l-345 -321h-159z" />
<glyph unicode="&#xea;" horiz-adv-x="1230" d="M82 586q0 174 60.5 309.5t187.5 217t305 81.5q132 0 234 -50.5t164.5 -140t92 -208.5t23.5 -260l-2 -48h-787q12 -131 88 -198.5t207 -67.5q146 0 254 94l178 -176q-214 -174 -432 -174q-179 0 -311 83.5t-197 222.5t-65 315zM254 1305l260 321h231l261 -321h-203 l-172 213l-172 -213h-205zM356 688h527q6 118 -68.5 195.5t-193.5 77.5q-116 0 -190.5 -81.5t-74.5 -191.5z" />
<glyph unicode="&#xeb;" horiz-adv-x="1230" d="M82 586q0 174 60.5 309.5t187.5 217t305 81.5q132 0 234 -50.5t164.5 -140t92 -208.5t23.5 -260l-2 -48h-787q12 -131 88 -198.5t207 -67.5q146 0 254 94l178 -176q-214 -174 -432 -174q-179 0 -311 83.5t-197 222.5t-65 315zM285 1436q0 56 38.5 94.5t94.5 38.5 t94.5 -38.5t38.5 -94.5t-38.5 -94.5t-94.5 -38.5t-94.5 38.5t-38.5 94.5zM356 688h527q6 118 -68.5 195.5t-193.5 77.5q-116 0 -190.5 -81.5t-74.5 -191.5zM707 1436q0 56 38.5 94.5t94.5 38.5t94.5 -38.5t38.5 -94.5t-38.5 -94.5t-94.5 -38.5t-94.5 38.5t-38.5 94.5z" />
<glyph unicode="&#xec;" horiz-adv-x="604" d="M-43 1628h285l221 -323h-162zM158 0v1163h262v-1163h-262z" />
<glyph unicode="&#xed;" horiz-adv-x="579" d="M129 1307l219 321h285l-344 -321h-160zM158 0v1163h262v-1163h-262z" />
<glyph unicode="&#xee;" horiz-adv-x="579" d="M-88 1305l260 321h231l259 -321h-203l-172 213l-172 -213h-203zM158 0v1163h262v-1163h-262z" />
<glyph unicode="&#xef;" horiz-adv-x="579" d="M-55 1438q0 56 38.5 94.5t94.5 38.5t94.5 -38.5t38.5 -94.5t-38.5 -94.5t-94.5 -38.5t-94.5 38.5t-38.5 94.5zM158 0v1163h262v-1163h-262zM367 1438q0 56 38.5 94.5t94.5 38.5t94.5 -38.5t38.5 -94.5t-38.5 -94.5t-94.5 -38.5t-94.5 38.5t-38.5 94.5z" />
<glyph unicode="&#xf0;" horiz-adv-x="1196" d="M113 555q0 85 22.5 171t69 164.5t111 136.5t155.5 86.5t195 16.5l-131 177h-306l-73 135h276l-110 155h258l100 -159h285l79 -127h-276q120 -175 143 -211q93 -142 148 -273.5t55 -267.5q0 -113 -34.5 -218t-95.5 -187t-154.5 -131.5t-202.5 -49.5q-160 0 -278 77 t-177 208t-59 297zM356 561q0 -146 74.5 -253t185.5 -107q74 0 134.5 50.5t93.5 132.5t33 177q0 145 -75 252t-186 107t-185.5 -107t-74.5 -252z" />
<glyph unicode="&#xf1;" horiz-adv-x="1226" d="M133 0v1163h258v-94q127 127 301 127q192 0 297 -108.5t105 -282.5v-805h-265v743q0 96 -51 147.5t-145 51.5q-86 0 -164 -72.5t-78 -158.5v-711h-258zM268 1305q11 103 66.5 169t144.5 66q60 0 144 -43q4 -2 21 -10t23.5 -11t21 -9t24 -8.5t22.5 -4.5t25 -2q39 0 66 22 t38 62h105q-8 -110 -62 -170.5t-147 -60.5q-45 0 -137 45q-4 2 -23 10t-25.5 11t-23 9t-26.5 8t-24 4.5t-26 2.5q-39 0 -66 -24.5t-38 -65.5h-103z" />
<glyph unicode="&#xf2;" horiz-adv-x="1273" d="M82 565q0 92 21.5 181.5t66.5 171.5t108.5 144t153.5 99t195 37q267 0 416 -165.5t149 -446.5q0 -133 -36 -245.5t-105 -196.5t-177 -131.5t-245 -47.5q-163 0 -289.5 84.5t-192 220t-65.5 295.5zM289 1628h284l222 -323h-162zM338 582q0 -155 88 -263t213 -108t213 108 t88 263q0 154 -88 262t-213 108t-213 -108t-88 -262z" />
<glyph unicode="&#xf3;" horiz-adv-x="1273" d="M82 565q0 92 21.5 181.5t66.5 171.5t108.5 144t153.5 99t195 37q267 0 416 -165.5t149 -446.5q0 -133 -36 -245.5t-105 -196.5t-177 -131.5t-245 -47.5q-163 0 -289.5 84.5t-192 220t-65.5 295.5zM338 582q0 -155 88 -263t213 -108t213 108t88 263q0 154 -88 262 t-213 108t-213 -108t-88 -262zM416 1305l219 321h285l-345 -321h-159z" />
<glyph unicode="&#xf4;" horiz-adv-x="1273" d="M82 565q0 92 21.5 181.5t66.5 171.5t108.5 144t153.5 99t195 37q267 0 416 -165.5t149 -446.5q0 -133 -36 -245.5t-105 -196.5t-177 -131.5t-245 -47.5q-163 0 -289.5 84.5t-192 220t-65.5 295.5zM246 1305l260 321h231l260 -321h-202l-172 213l-172 -213h-205zM338 582 q0 -155 88 -263t213 -108t213 108t88 263q0 154 -88 262t-213 108t-213 -108t-88 -262z" />
<glyph unicode="&#xf5;" horiz-adv-x="1273" d="M82 565q0 92 21.5 181.5t66.5 171.5t108.5 144t153.5 99t195 37q267 0 416 -165.5t149 -446.5q0 -133 -36 -245.5t-105 -196.5t-177 -131.5t-245 -47.5q-163 0 -289.5 84.5t-192 220t-65.5 295.5zM309 1305q11 103 66.5 169t144.5 66q60 0 144 -43q4 -2 21 -10t23.5 -11 t21 -9t24 -8.5t22.5 -4.5t25 -2q39 0 66 22t38 62h105q-8 -110 -62 -170.5t-147 -60.5q-45 0 -137 45t-148 45q-39 0 -66 -24.5t-38 -65.5h-103zM338 582q0 -155 88 -263t213 -108t213 108t88 263q0 154 -88 262t-213 108t-213 -108t-88 -262z" />
<glyph unicode="&#xf6;" horiz-adv-x="1273" d="M82 565q0 92 21.5 181.5t66.5 171.5t108.5 144t153.5 99t195 37q267 0 416 -165.5t149 -446.5q0 -133 -36 -245.5t-105 -196.5t-177 -131.5t-245 -47.5q-163 0 -289.5 84.5t-192 220t-65.5 295.5zM276 1436q0 55 39 94t95 39t94.5 -38.5t38.5 -94.5t-38.5 -94.5 t-94.5 -38.5t-95 39t-39 94zM338 582q0 -155 88 -263t213 -108t213 108t88 263q0 154 -88 262t-213 108t-213 -108t-88 -262zM698 1436q0 56 39 94.5t94 38.5q56 0 95 -39t39 -94t-39 -94t-95 -39q-55 0 -94 38.5t-39 94.5z" />
<glyph unicode="&#xf7;" horiz-adv-x="1124" d="M92 444v211h940v-211h-940zM436 135q0 64 47 110t111 46q62 0 108 -46.5t46 -109.5q0 -59 -46.5 -107t-105.5 -48q-65 0 -112.5 46t-47.5 109zM436 963q0 64 47 109.5t111 45.5q62 0 108 -46t46 -109q0 -59 -46.5 -107.5t-105.5 -48.5q-65 0 -112.5 46.5t-47.5 109.5z " />
<glyph unicode="&#xf8;" horiz-adv-x="1273" d="M82 565q0 92 21.5 181.5t66.5 171.5t108.5 144t153.5 99t195 37q56 0 118 -10l41 149l113 -49l-37 -133q159 -63 244.5 -211t85.5 -358q0 -133 -36 -245.5t-105 -196.5t-177 -131.5t-245 -47.5q-55 0 -94 8l-41 -147l-113 41l39 139q-157 66 -247.5 219.5t-90.5 339.5z M338 582q0 -103 41 -189.5t110 -134.5l191 690q-28 4 -41 4q-125 0 -213 -108t-88 -262zM598 215q28 -4 41 -4q125 0 213 108t88 263q0 100 -41.5 185t-110.5 136z" />
<glyph unicode="&#xf9;" horiz-adv-x="1210" d="M123 350v813h260v-745q0 -104 49 -151.5t148 -47.5q86 0 162.5 72.5t76.5 159.5v712h258v-1163h-258v92q-56 -58 -139.5 -92.5t-159.5 -34.5q-185 0 -291 105t-106 280zM285 1628h284l222 -323h-162z" />
<glyph unicode="&#xfa;" horiz-adv-x="1210" d="M123 350v813h260v-745q0 -104 49 -151.5t148 -47.5q86 0 162.5 72.5t76.5 159.5v712h258v-1163h-258v92q-56 -58 -139.5 -92.5t-159.5 -34.5q-185 0 -291 105t-106 280zM381 1305l219 321h285l-344 -321h-160z" />
<glyph unicode="&#xfb;" horiz-adv-x="1210" d="M123 350v813h260v-745q0 -104 49 -151.5t148 -47.5q86 0 162.5 72.5t76.5 159.5v712h258v-1163h-258v92q-56 -58 -139.5 -92.5t-159.5 -34.5q-185 0 -291 105t-106 280zM225 1305l260 321h232l260 -321h-203l-172 213l-172 -213h-205z" />
<glyph unicode="&#xfc;" horiz-adv-x="1210" d="M123 350v813h260v-745q0 -104 49 -151.5t148 -47.5q86 0 162.5 72.5t76.5 159.5v712h258v-1163h-258v92q-56 -58 -139.5 -92.5t-159.5 -34.5q-185 0 -291 105t-106 280zM262 1436q0 56 39 94.5t94 38.5t94 -38.5t39 -94.5t-39 -94.5t-94 -38.5t-94 38.5t-39 94.5z M684 1436q0 56 39 94.5t94 38.5t94 -38.5t39 -94.5t-39 -94.5t-94 -38.5t-94 38.5t-39 94.5z" />
<glyph unicode="&#xfd;" horiz-adv-x="1112" d="M25 1163h274l258 -801l252 801h278l-456 -1380q-16 -50 -46 -86t-59 -49q-87 -43 -231 -43q-100 0 -193 35q13 78 43 213q82 -29 142 -29q61 0 101 31t40 88q0 5 -101 310t-201 607zM358 1305l222 323h284l-346 -323h-160z" />
<glyph unicode="&#xfe;" horiz-adv-x="1302" d="M133 -383v1982h252v-518q46 50 127 82.5t162 32.5q160 0 286 -82.5t193.5 -219.5t67.5 -300q0 -145 -42 -265t-115 -199t-170.5 -122t-209.5 -43q-180 0 -299 119v-467h-252zM393 428q0 -92 76 -151.5t162 -59.5q145 0 231 104t86 263q0 87 -37 166.5t-110 132.5t-164 53 q-47 0 -102.5 -27t-98.5 -81.5t-43 -118.5v-281z" />
<glyph unicode="&#xff;" horiz-adv-x="1112" d="M25 1163h274l258 -801l252 801h278l-456 -1380q-16 -50 -46 -86t-59 -49q-87 -43 -231 -43q-100 0 -193 35q13 78 43 213q82 -29 142 -29q61 0 101 31t40 88q0 5 -101 310t-201 607zM213 1407q0 55 38.5 94t94.5 39t94.5 -39t38.5 -94t-38.5 -94t-94.5 -39t-94.5 39 t-38.5 94zM635 1407q0 55 38.5 94t94.5 39t94.5 -39t38.5 -94t-38.5 -94t-94.5 -39t-94.5 39t-38.5 94z" />
<glyph unicode="&#x152;" horiz-adv-x="2109" d="M102 795q0 403 201 602.5t588 199.5h1079v-249h-729v-414h662v-248h-662v-442l776 2v-246l-1226 -2q-163 0 -295 61.5t-217.5 170t-131 253t-45.5 312.5zM377 793q0 -85 12.5 -159.5t43.5 -144t77.5 -119t118.5 -79t164 -29.5q94 0 140 27.5t46 107.5l-2 779 q0 77 -45 113t-139 36q-92 0 -164.5 -29.5t-119 -79t-77 -119t-43 -144.5t-12.5 -160z" />
<glyph unicode="&#x153;" horiz-adv-x="1978" d="M82 584q0 176 62 313.5t186 219t293 81.5q214 0 383 -166q156 164 380 164q171 0 290.5 -90t173.5 -244t46 -356h-772q7 -67 29 -119t52.5 -83.5t70.5 -52t78.5 -28.5t79.5 -8q60 0 122.5 26.5t108.5 67.5l176 -166q-156 -176 -377 -176q-271 0 -450 176 q-166 -178 -391 -178q-159 0 -283 81.5t-191 222.5t-67 315zM350 588q0 -153 76.5 -260t189.5 -107q115 0 192 107t77 260t-77 259.5t-192 106.5q-113 0 -189.5 -106.5t-76.5 -259.5zM1128 707h514q-19 113 -85.5 189t-174.5 77q-102 0 -171 -78t-83 -188z" />
<glyph unicode="&#x178;" horiz-adv-x="1400" d="M51 1597h291l358 -669l359 669h291l-512 -956v-641h-275v641zM362 1831q0 55 39 94t95 39t94.5 -39t38.5 -94t-38.5 -94t-94.5 -39t-95 39t-39 94zM784 1831q0 55 39 94t95 39t94.5 -39t38.5 -94t-38.5 -94t-94.5 -39t-95 39t-39 94z" />
<glyph unicode="&#x2c6;" horiz-adv-x="1421" d="M344 1305l260 321h232l258 -321h-203l-172 213l-172 -213h-203z" />
<glyph unicode="&#x2dc;" horiz-adv-x="1736" d="M489 1305q11 103 66.5 169t144.5 66q60 0 144 -43q4 -2 21 -10t23.5 -11t21 -9t24 -8.5t22.5 -4.5t25 -2q39 0 66 22t38 62h105q-8 -110 -62 -170.5t-147 -60.5q-45 0 -137 45t-148 45q-39 0 -66 -24.5t-38 -65.5h-103z" />
<glyph unicode="&#x2000;" horiz-adv-x="1085" />
<glyph unicode="&#x2001;" horiz-adv-x="2171" />
<glyph unicode="&#x2002;" horiz-adv-x="1085" />
<glyph unicode="&#x2003;" horiz-adv-x="2171" />
<glyph unicode="&#x2004;" horiz-adv-x="723" />
<glyph unicode="&#x2005;" horiz-adv-x="542" />
<glyph unicode="&#x2006;" horiz-adv-x="361" />
<glyph unicode="&#x2007;" horiz-adv-x="361" />
<glyph unicode="&#x2008;" horiz-adv-x="271" />
<glyph unicode="&#x2009;" horiz-adv-x="434" />
<glyph unicode="&#x200a;" horiz-adv-x="120" />
<glyph unicode="&#x2010;" horiz-adv-x="679" d="M61 557v221h496v-221h-496z" />
<glyph unicode="&#x2011;" horiz-adv-x="679" d="M61 557v221h496v-221h-496z" />
<glyph unicode="&#x2012;" horiz-adv-x="679" d="M61 557v221h496v-221h-496z" />
<glyph unicode="&#x2013;" horiz-adv-x="1165" d="M61 557v223h1045v-223h-1045z" />
<glyph unicode="&#x2014;" horiz-adv-x="1546" d="M61 557v223h1426v-223h-1426z" />
<glyph unicode="&#x2018;" horiz-adv-x="565" d="M150 1300q0 140 69.5 218.5t198.5 113.5v-69q-55 -14 -104 -66t-60 -137q45 10 70 10q53 0 93 -44.5t40 -98.5q0 -60 -42 -103t-102 -43q-77 0 -120 61t-43 158z" />
<glyph unicode="&#x2019;" horiz-adv-x="565" d="M150 1470q0 60 41.5 103t101.5 43q77 0 120.5 -61t43.5 -158q0 -140 -70 -218.5t-199 -111.5v68q55 15 104 66t60 136q-45 -10 -69 -10q-53 0 -93 44.5t-40 98.5z" />
<glyph unicode="&#x201a;" horiz-adv-x="595" d="M143 164q0 65 46 111.5t110 46.5q84 0 129 -65t45 -163q0 -277 -291 -340v107q46 7 94 48.5t56 102.5q-16 -4 -43 -4q-59 0 -102.5 48.5t-43.5 107.5z" />
<glyph unicode="&#x201c;" horiz-adv-x="1064" d="M164 1290q0 147 76 229t213 115v-90q-53 -11 -102.5 -58.5t-59.5 -121.5q33 6 57 6q57 0 100.5 -47.5t43.5 -105.5q0 -65 -45 -110.5t-109 -45.5q-83 0 -128.5 64.5t-45.5 164.5zM635 1290q0 147 76 229t213 115v-90q-53 -11 -102.5 -58.5t-59.5 -121.5q33 6 57 6 q57 0 100.5 -47.5t43.5 -105.5q0 -65 -45 -110.5t-109 -45.5q-83 0 -128.5 64.5t-45.5 164.5z" />
<glyph unicode="&#x201d;" horiz-adv-x="1064" d="M143 1470q0 65 45 110.5t109 45.5q83 0 128.5 -64.5t45.5 -164.5q0 -147 -76 -229t-213 -115v90q53 11 102.5 58.5t59.5 123.5q-33 -8 -57 -8q-57 0 -100.5 47.5t-43.5 105.5zM614 1470q0 65 45 110.5t109 45.5q83 0 128.5 -64.5t45.5 -164.5q0 -147 -76 -229t-213 -115 v90q53 11 102.5 58.5t59.5 123.5q-33 -8 -57 -8q-57 0 -100.5 47.5t-43.5 105.5z" />
<glyph unicode="&#x201e;" horiz-adv-x="1042" d="M143 164q0 65 46 111.5t110 46.5q84 0 129 -65t45 -163q0 -277 -291 -340v107q46 7 94 48.5t56 102.5q-16 -4 -43 -4q-59 0 -102.5 48.5t-43.5 107.5zM610 164q0 65 46 111.5t110 46.5q84 0 129 -65t45 -163q0 -277 -291 -340v107q46 7 94 48.5t56 102.5q-16 -4 -43 -4 q-59 0 -102.5 48.5t-43.5 107.5z" />
<glyph unicode="&#x2022;" horiz-adv-x="743" d="M102 733q0 112 79 190t190 78q113 0 191.5 -78t78.5 -190t-78.5 -190t-191.5 -78q-111 0 -190 78t-79 190z" />
<glyph unicode="&#x2026;" horiz-adv-x="1466" d="M123 127q0 61 42.5 104t104.5 43t105 -43t43 -104t-43 -104t-105 -43t-104.5 43t-42.5 104zM594 127q0 61 43 104t104 43q62 0 105 -43t43 -104t-43 -104t-105 -43q-61 0 -104 43t-43 104zM1065 127q0 61 42.5 104t104.5 43t105 -43t43 -104t-43 -104t-105 -43t-104.5 43 t-42.5 104z" />
<glyph unicode="&#x202f;" horiz-adv-x="434" />
<glyph unicode="&#x2039;" horiz-adv-x="2699" d="M41 788l651 656h658l-432 -434h1740v-437h-1740l434 -436h-660z" />
<glyph unicode="&#x203a;" horiz-adv-x="2699" d="M41 573v437h1741l-432 434h657l651 -656l-651 -651h-661l436 436h-1741z" />
<glyph unicode="&#x205f;" horiz-adv-x="542" />
<glyph unicode="&#x20ac;" horiz-adv-x="1742" d="M51 567l21 146h141q-2 25 -2 75v64h-121l21 145h118q24 136 81 250.5t144 201t211 135t271 48.5q243 0 416.5 -125t236.5 -342l-246 -88q-41 131 -142.5 221.5t-246.5 90.5q-190 0 -299 -106.5t-145 -285.5h451l-21 -145h-448v-57q0 -55 2 -82h428l-21 -146h-385 q20 -78 53.5 -140.5t84 -112.5t123 -77.5t161.5 -27.5q144 0 248.5 77.5t148.5 215.5l250 -84q-162 -455 -651 -455q-142 0 -263 46.5t-207.5 129t-145 191t-85.5 237.5h-182z" />
<glyph unicode="&#x2122;" horiz-adv-x="1642" d="M61 1460v137h590v-137h-225v-661h-139v661h-226zM760 799v798h190l197 -297l199 297h194v-798h-141v618l-252 -377l-250 379v-620h-137z" />
<glyph unicode="&#xe000;" horiz-adv-x="1167" d="M0 0v1167h1167v-1167h-1167z" />
<glyph unicode="&#xfb01;" horiz-adv-x="1200" d="M133 805l371 772h192l371 -772h-193l-274 600l-276 -600h-191z" />
</font>
</defs>
</svg>
